<svg width="112" height="112" viewBox="0 0 112 112" fill="none" xmlns="http://www.w3.org/2000/svg">
<mask id="mask0_513_162" style="mask-type:alpha" maskUnits="userSpaceOnUse" x="0" y="0" width="112" height="112">
<g clip-path="url(#clip0_513_162)">
<path d="M56 18.6666V4.66663L37.3333 23.3333L56 42V28C71.4466 28 84 40.5533 84 56C84 60.7133 82.8333 65.1933 80.7333 69.0666L87.5466 75.88C91.1866 70.14 93.3333 63.3266 93.3333 56C93.3333 35.3733 76.6266 18.6666 56 18.6666ZM56 84C40.5533 84 28 71.4466 28 56C28 51.2866 29.1666 46.8066 31.2666 42.9333L24.4533 36.12C20.8133 41.86 18.6666 48.6733 18.6666 56C18.6666 76.6266 35.3733 93.3333 56 93.3333V107.333L74.6666 88.6666L56 70V84Z" fill="#323232"/>
</g>
</mask>
<g mask="url(#mask0_513_162)">
<rect x="-29" y="-33" width="166" height="201" fill="#002FA7"/>
</g>
<defs>
<clipPath id="clip0_513_162">
<rect width="112" height="112" fill="white"/>
</clipPath>
</defs>
</svg>
