<svg width="112" height="112" viewBox="0 0 112 112" fill="none" xmlns="http://www.w3.org/2000/svg">
<mask id="mask0_678_302" style="mask-type:alpha" maskUnits="userSpaceOnUse" x="0" y="0" width="112" height="112">
<mask id="mask1_678_302" style="mask-type:alpha" maskUnits="userSpaceOnUse" x="0" y="0" width="112" height="112">
<g clip-path="url(#clip0_678_302)">
<path d="M79.7533 21.28C76.4867 16.4733 72.7533 11.9933 68.5533 7.97999C66.92 6.39332 64.1667 7.88666 64.6333 10.1267C65.52 14.5133 66.4533 20.3 66.4533 25.48C66.4533 35.0933 60.1533 42.8867 50.54 42.8867C43.3533 42.8867 37.4733 38.5467 34.9067 32.34C34.44 31.4067 34.2533 30.8467 33.9733 29.82C33.46 27.86 30.8933 27.2533 29.7733 28.98C28.9333 30.24 28.14 31.5 27.3933 32.8533C21.84 42.3733 18.6667 53.48 18.6667 65.3333C18.6667 85.96 35.3733 102.667 56 102.667C76.6267 102.667 93.3333 85.96 93.3333 65.3333C93.3333 49.0467 88.2933 33.9267 79.7533 21.28V21.28ZM54.6467 88.6667C46.34 88.6667 39.62 82.1333 39.62 74.0133C39.62 66.4533 44.52 61.1333 52.7333 59.4533C59.5933 58.0533 66.64 55.1133 71.54 50.4933C72.8467 49.28 74.9933 49.84 75.3667 51.5667C76.44 56.3267 77 61.2733 77 66.2667C77.0467 78.6333 67.0133 88.6667 54.6467 88.6667V88.6667Z" fill="#323232"/>
</g>
</mask>
<g mask="url(#mask1_678_302)">
<rect x="-23" y="-7" width="170" height="143" fill="#002FA7"/>
</g>
</mask>
<g mask="url(#mask0_678_302)">
<rect x="6" y="-12" width="112" height="130" fill="white"/>
</g>
<defs>
<clipPath id="clip0_678_302">
<rect width="112" height="112" fill="white"/>
</clipPath>
</defs>
</svg>
