<svg width="112" height="112" viewBox="0 0 112 112" fill="none" xmlns="http://www.w3.org/2000/svg">
<mask id="mask0_677_263" style="mask-type:alpha" maskUnits="userSpaceOnUse" x="0" y="0" width="112" height="112">
<g clip-path="url(#clip0_677_263)">
<path d="M95.5267 26.2733C97.3467 28.0933 97.3467 30.9867 95.5267 32.8067L42.6067 85.7267C40.7867 87.5467 37.8933 87.5467 36.0733 85.7267L16.4733 66.1267C14.6533 64.3067 14.6533 61.4133 16.4733 59.5933C18.2933 57.7733 21.1867 57.7733 23.0067 59.5933L39.34 75.9267L88.9933 26.2733C90.8133 24.4533 93.7067 24.4533 95.5267 26.2733ZM85.68 16.38L39.34 62.72L26.32 49.7C22.68 46.06 16.7533 46.06 13.1133 49.7L6.58001 56.2333C2.94001 59.8733 2.94001 65.8 6.58001 69.44L32.7133 95.5733C36.3533 99.2133 42.28 99.2133 45.92 95.5733L105.42 36.12C109.06 32.48 109.06 26.5533 105.42 22.9133L98.8867 16.38C95.2 12.74 89.32 12.74 85.68 16.38V16.38Z" fill="#323232"/>
</g>
</mask>
<g mask="url(#mask0_677_263)">
<rect x="-29" y="-7" width="170" height="143" fill="#002FA7"/>
</g>
<defs>
<clipPath id="clip0_677_263">
<rect width="112" height="112" fill="white"/>
</clipPath>
</defs>
</svg>
