<svg width="112" height="112" viewBox="0 0 112 112" fill="none" xmlns="http://www.w3.org/2000/svg">
<mask id="mask0_678_333" style="mask-type:alpha" maskUnits="userSpaceOnUse" x="0" y="0" width="112" height="112">
<mask id="mask1_678_333" style="mask-type:alpha" maskUnits="userSpaceOnUse" x="0" y="0" width="112" height="112">
<g clip-path="url(#clip0_678_333)">
<path d="M47.8333 60.6666C47.8333 63.8866 45.22 66.5 42 66.5C38.78 66.5 36.1667 63.8866 36.1667 60.6666C36.1667 57.4466 38.78 54.8333 42 54.8333C45.22 54.8333 47.8333 57.4466 47.8333 60.6666ZM70 54.8333C66.78 54.8333 64.1667 57.4466 64.1667 60.6666C64.1667 63.8866 66.78 66.5 70 66.5C73.22 66.5 75.8333 63.8866 75.8333 60.6666C75.8333 57.4466 73.22 54.8333 70 54.8333ZM102.667 56C102.667 81.76 81.76 102.667 56 102.667C30.24 102.667 9.33334 81.76 9.33334 56C9.33334 30.24 30.24 9.33331 56 9.33331C81.76 9.33331 102.667 30.24 102.667 56ZM49.7467 19.2266C56.28 30.0533 68.1333 37.3333 81.6667 37.3333C83.8133 37.3333 85.9133 37.1 87.92 36.7733C81.3867 25.9466 69.5333 18.6666 56 18.6666C53.8533 18.6666 51.7533 18.9 49.7467 19.2266ZM20.6267 44.1933C28.6067 39.6666 34.7667 32.2933 37.7067 23.4733C29.7267 28 23.5667 35.3733 20.6267 44.1933ZM93.3333 56C93.3333 52.36 92.7733 48.86 91.7933 45.5466C88.5267 46.2466 85.1667 46.6666 81.6667 46.6666C67.06 46.6666 54.04 39.9466 45.4533 29.4466C40.5533 41.3933 30.8 50.7733 18.6667 55.3466C18.7133 55.5333 18.6667 55.7666 18.6667 56C18.6667 76.58 35.42 93.3333 56 93.3333C76.58 93.3333 93.3333 76.58 93.3333 56Z" fill="#323232"/>
</g>
</mask>
<g mask="url(#mask1_678_333)">
<rect x="-23" y="-22" width="170" height="143" fill="#002FA7"/>
</g>
</mask>
<g mask="url(#mask0_678_333)">
<rect x="-19" y="-13" width="151" height="131" fill="white"/>
</g>
<defs>
<clipPath id="clip0_678_333">
<rect width="112" height="112" fill="white"/>
</clipPath>
</defs>
</svg>
