<svg width="112" height="112" viewBox="0 0 112 112" fill="none" xmlns="http://www.w3.org/2000/svg">
<mask id="mask0_678_336" style="mask-type:alpha" maskUnits="userSpaceOnUse" x="0" y="0" width="112" height="112">
<mask id="mask1_678_336" style="mask-type:alpha" maskUnits="userSpaceOnUse" x="0" y="0" width="112" height="112">
<g clip-path="url(#clip0_678_336)">
<path d="M88.6667 18.6666H84V14C84 11.4333 81.9 9.33331 79.3333 9.33331C76.7667 9.33331 74.6667 11.4333 74.6667 14V18.6666H37.3333V14C37.3333 11.4333 35.2333 9.33331 32.6667 9.33331C30.1 9.33331 28 11.4333 28 14V18.6666H23.3333C18.1533 18.6666 14.0467 22.8666 14.0467 28L14 93.3333C14 98.4666 18.1533 102.667 23.3333 102.667H88.6667C93.8 102.667 98 98.4666 98 93.3333V28C98 22.8666 93.8 18.6666 88.6667 18.6666ZM88.6667 88.6666C88.6667 91.2333 86.5667 93.3333 84 93.3333H28C25.4333 93.3333 23.3333 91.2333 23.3333 88.6666V42H88.6667V88.6666ZM32.6667 51.3333H42V60.6666H32.6667V51.3333ZM51.3333 51.3333H60.6667V60.6666H51.3333V51.3333ZM70 51.3333H79.3333V60.6666H70V51.3333Z" fill="#323232"/>
</g>
</mask>
<g mask="url(#mask1_678_336)">
<rect x="-29" y="-8" width="170" height="143" fill="#002FA7"/>
</g>
</mask>
<g mask="url(#mask0_678_336)">
<rect x="-19" y="-10" width="151" height="131" fill="white"/>
</g>
<defs>
<clipPath id="clip0_678_336">
<rect width="112" height="112" fill="white"/>
</clipPath>
</defs>
</svg>
